<?xml version="1.0" encoding="utf-8"?>
<!-- Generator: Adobe Illustrator 25.2.0, SVG Export Plug-In . SVG Version: 6.00 Build 0)  -->
<svg version="1.1" id="Layer_1" xmlns="http://www.w3.org/2000/svg" xmlns:xlink="http://www.w3.org/1999/xlink" x="0px" y="0px"
	 viewBox="0 0 841.89 1190.55" style="enable-background:new 0 0 841.89 1190.55;" xml:space="preserve">
<style type="text/css">
	.st0{fill:url(#SVGID_1_);}
	.st1{fill:url(#SVGID_2_);}
	.st2{fill:url(#SVGID_3_);}
	.st3{fill:url(#SVGID_4_);}
	.st4{fill:url(#SVGID_5_);}
	.st5{fill:url(#SVGID_6_);}
	.st6{fill:url(#SVGID_7_);}
	.st7{fill:url(#SVGID_8_);}
	.st8{fill:url(#SVGID_9_);}
	.st9{fill:url(#SVGID_10_);}
	.st10{fill:url(#SVGID_11_);}
	.st11{fill:url(#SVGID_12_);}
	.st12{fill:url(#SVGID_13_);}
	.st13{fill:url(#SVGID_14_);}
	.st14{fill:url(#SVGID_15_);}
	.st15{fill:url(#SVGID_16_);}
	.st16{fill:url(#SVGID_17_);}
	.st17{fill:url(#SVGID_18_);}
	.st18{fill:url(#SVGID_19_);}
	.st19{fill:url(#SVGID_20_);}
	.st20{fill:url(#SVGID_21_);}
	.st21{fill:url(#SVGID_22_);}
	.st22{fill:url(#SVGID_23_);}
	.st23{fill:url(#SVGID_24_);}
	.st24{fill:url(#SVGID_25_);}
	.st25{fill:url(#SVGID_26_);}
	.st26{fill:url(#SVGID_27_);}
	.st27{fill:url(#SVGID_28_);}
	.st28{fill:url(#SVGID_29_);}
</style>
<linearGradient id="SVGID_1_" gradientUnits="userSpaceOnUse" x1="238.9089" y1="357.2817" x2="610.4999" y2="728.8728">
	<stop  offset="0" style="stop-color:#FBF395"/>
	<stop  offset="0.122" style="stop-color:#FAE77F"/>
	<stop  offset="0.2392" style="stop-color:#F8DC66"/>
	<stop  offset="0.2697" style="stop-color:#E1C256"/>
	<stop  offset="0.3364" style="stop-color:#BF993E"/>
	<stop  offset="0.3976" style="stop-color:#AA8031"/>
	<stop  offset="0.4509" style="stop-color:#9D722B"/>
	<stop  offset="0.4902" style="stop-color:#996D29"/>
	<stop  offset="0.5197" style="stop-color:#9C712B"/>
	<stop  offset="0.5567" style="stop-color:#A67D30"/>
	<stop  offset="0.5978" style="stop-color:#B7933D"/>
	<stop  offset="0.6419" style="stop-color:#D1B555"/>
	<stop  offset="0.6865" style="stop-color:#FAE878"/>
	<stop  offset="0.7724" style="stop-color:#FBF5AD"/>
	<stop  offset="0.8333" style="stop-color:#FAE878"/>
	<stop  offset="1" style="stop-color:#A46427"/>
</linearGradient>
<circle class="st0" cx="420.71" cy="539.09" r="271.29"/>
<linearGradient id="SVGID_2_" gradientUnits="userSpaceOnUse" x1="623.713" y1="336.0885" x2="231.0429" y2="728.7586">
	<stop  offset="0.2847" style="stop-color:#01445F"/>
	<stop  offset="1" style="stop-color:#060B09"/>
</linearGradient>
<circle class="st1" cx="420.71" cy="539.09" r="266.34"/>
<g>
	<linearGradient id="SVGID_3_" gradientUnits="userSpaceOnUse" x1="420.8441" y1="795.4882" x2="420.8441" y2="795.4882">
		<stop  offset="0" style="stop-color:#FBF395"/>
		<stop  offset="0.122" style="stop-color:#FAE77F"/>
		<stop  offset="0.2392" style="stop-color:#F8DC66"/>
		<stop  offset="0.2697" style="stop-color:#E1C256"/>
		<stop  offset="0.3364" style="stop-color:#BF993E"/>
		<stop  offset="0.3976" style="stop-color:#AA8031"/>
		<stop  offset="0.4509" style="stop-color:#9D722B"/>
		<stop  offset="0.4902" style="stop-color:#996D29"/>
		<stop  offset="0.5197" style="stop-color:#9C712B"/>
		<stop  offset="0.5567" style="stop-color:#A67D30"/>
		<stop  offset="0.5978" style="stop-color:#B7933D"/>
		<stop  offset="0.6419" style="stop-color:#D1B555"/>
		<stop  offset="0.6865" style="stop-color:#FAE878"/>
		<stop  offset="0.7724" style="stop-color:#FBF5AD"/>
		<stop  offset="0.8333" style="stop-color:#FAE878"/>
		<stop  offset="1" style="stop-color:#A46427"/>
	</linearGradient>
	<polygon class="st2" points="420.84,795.49 420.84,795.49 420.84,795.49 420.84,795.49 420.84,795.49 	"/>
	<linearGradient id="SVGID_4_" gradientUnits="userSpaceOnUse" x1="124.4369" y1="495.334" x2="432.1295" y2="803.0266">
		<stop  offset="0" style="stop-color:#FBF395"/>
		<stop  offset="0.122" style="stop-color:#FAE77F"/>
		<stop  offset="0.2392" style="stop-color:#F8DC66"/>
		<stop  offset="0.2697" style="stop-color:#E1C256"/>
		<stop  offset="0.3364" style="stop-color:#BF993E"/>
		<stop  offset="0.3976" style="stop-color:#AA8031"/>
		<stop  offset="0.4509" style="stop-color:#9D722B"/>
		<stop  offset="0.4902" style="stop-color:#996D29"/>
		<stop  offset="0.5197" style="stop-color:#9C712B"/>
		<stop  offset="0.5567" style="stop-color:#A67D30"/>
		<stop  offset="0.5978" style="stop-color:#B7933D"/>
		<stop  offset="0.6419" style="stop-color:#D1B555"/>
		<stop  offset="0.6865" style="stop-color:#FAE878"/>
		<stop  offset="0.7724" style="stop-color:#FBF5AD"/>
		<stop  offset="0.8333" style="stop-color:#FAE878"/>
		<stop  offset="1" style="stop-color:#A46427"/>
	</linearGradient>
	<path class="st3" d="M417.1,791.75c0-2.05,1.67-3.74,3.74-3.74l0,0c2.07,0,3.74,1.67,3.74,3.74l0,0c0,2.07-1.67,3.74-3.74,3.74l0,0
		C418.8,795.49,417.1,793.82,417.1,791.75z"/>
	<linearGradient id="SVGID_5_" gradientUnits="userSpaceOnUse" x1="95.9869" y1="523.7776" x2="403.6826" y2="831.4734">
		<stop  offset="0" style="stop-color:#FBF395"/>
		<stop  offset="0.122" style="stop-color:#FAE77F"/>
		<stop  offset="0.2392" style="stop-color:#F8DC66"/>
		<stop  offset="0.2697" style="stop-color:#E1C256"/>
		<stop  offset="0.3364" style="stop-color:#BF993E"/>
		<stop  offset="0.3976" style="stop-color:#AA8031"/>
		<stop  offset="0.4509" style="stop-color:#9D722B"/>
		<stop  offset="0.4902" style="stop-color:#996D29"/>
		<stop  offset="0.5197" style="stop-color:#9C712B"/>
		<stop  offset="0.5567" style="stop-color:#A67D30"/>
		<stop  offset="0.5978" style="stop-color:#B7933D"/>
		<stop  offset="0.6419" style="stop-color:#D1B555"/>
		<stop  offset="0.6865" style="stop-color:#FAE878"/>
		<stop  offset="0.7724" style="stop-color:#FBF5AD"/>
		<stop  offset="0.8333" style="stop-color:#FAE878"/>
		<stop  offset="1" style="stop-color:#A46427"/>
	</linearGradient>
	<path class="st4" d="M354.5,786.85L354.5,786.85L354.5,786.85c-2-0.52-3.19-2.57-2.64-4.57l0,0c0.52-2,2.57-3.19,4.57-2.65l0,0
		c2,0.52,3.19,2.57,2.67,4.57l0,0c-0.45,1.67-1.97,2.77-3.62,2.77l0,0C355.15,786.98,354.82,786.96,354.5,786.85z"/>
	<linearGradient id="SVGID_6_" gradientUnits="userSpaceOnUse" x1="161.4142" y1="458.356" x2="469.1074" y2="766.0493">
		<stop  offset="0" style="stop-color:#FBF395"/>
		<stop  offset="0.122" style="stop-color:#FAE77F"/>
		<stop  offset="0.2392" style="stop-color:#F8DC66"/>
		<stop  offset="0.2697" style="stop-color:#E1C256"/>
		<stop  offset="0.3364" style="stop-color:#BF993E"/>
		<stop  offset="0.3976" style="stop-color:#AA8031"/>
		<stop  offset="0.4509" style="stop-color:#9D722B"/>
		<stop  offset="0.4902" style="stop-color:#996D29"/>
		<stop  offset="0.5197" style="stop-color:#9C712B"/>
		<stop  offset="0.5567" style="stop-color:#A67D30"/>
		<stop  offset="0.5978" style="stop-color:#B7933D"/>
		<stop  offset="0.6419" style="stop-color:#D1B555"/>
		<stop  offset="0.6865" style="stop-color:#FAE878"/>
		<stop  offset="0.7724" style="stop-color:#FBF5AD"/>
		<stop  offset="0.8333" style="stop-color:#FAE878"/>
		<stop  offset="1" style="stop-color:#A46427"/>
	</linearGradient>
	<path class="st5" d="M482.62,784.14c-0.55-2,0.65-4.04,2.65-4.57l0,0c2-0.55,4.04,0.65,4.59,2.65l0,0c0.52,2-0.67,4.04-2.67,4.59
		l0,0c0,0,0,0,0-0.02l0,0c-0.32,0.1-0.65,0.15-0.97,0.15l0,0C484.57,786.93,483.07,785.81,482.62,784.14z"/>
	<linearGradient id="SVGID_7_" gradientUnits="userSpaceOnUse" x1="78.1244" y1="541.6422" x2="385.8187" y2="849.3365">
		<stop  offset="0" style="stop-color:#FBF395"/>
		<stop  offset="0.122" style="stop-color:#FAE77F"/>
		<stop  offset="0.2392" style="stop-color:#F8DC66"/>
		<stop  offset="0.2697" style="stop-color:#E1C256"/>
		<stop  offset="0.3364" style="stop-color:#BF993E"/>
		<stop  offset="0.3976" style="stop-color:#AA8031"/>
		<stop  offset="0.4509" style="stop-color:#9D722B"/>
		<stop  offset="0.4902" style="stop-color:#996D29"/>
		<stop  offset="0.5197" style="stop-color:#9C712B"/>
		<stop  offset="0.5567" style="stop-color:#A67D30"/>
		<stop  offset="0.5978" style="stop-color:#B7933D"/>
		<stop  offset="0.6419" style="stop-color:#D1B555"/>
		<stop  offset="0.6865" style="stop-color:#FAE878"/>
		<stop  offset="0.7724" style="stop-color:#FBF5AD"/>
		<stop  offset="0.8333" style="stop-color:#FAE878"/>
		<stop  offset="1" style="stop-color:#A46427"/>
	</linearGradient>
	<path class="st6" d="M292.64,761.28c-1.8-1.05-2.4-3.32-1.37-5.11l0,0c1.05-1.8,3.32-2.42,5.11-1.37l0,0
		c1.8,1.02,2.4,3.32,1.37,5.12l0,0c-0.7,1.2-1.95,1.87-3.24,1.87l0,0C293.87,761.78,293.24,761.6,292.64,761.28z"/>
	<linearGradient id="SVGID_8_" gradientUnits="userSpaceOnUse" x1="204.4986" y1="415.2622" x2="512.196" y2="722.9596">
		<stop  offset="0" style="stop-color:#FBF395"/>
		<stop  offset="0.122" style="stop-color:#FAE77F"/>
		<stop  offset="0.2392" style="stop-color:#F8DC66"/>
		<stop  offset="0.2697" style="stop-color:#E1C256"/>
		<stop  offset="0.3364" style="stop-color:#BF993E"/>
		<stop  offset="0.3976" style="stop-color:#AA8031"/>
		<stop  offset="0.4509" style="stop-color:#9D722B"/>
		<stop  offset="0.4902" style="stop-color:#996D29"/>
		<stop  offset="0.5197" style="stop-color:#9C712B"/>
		<stop  offset="0.5567" style="stop-color:#A67D30"/>
		<stop  offset="0.5978" style="stop-color:#B7933D"/>
		<stop  offset="0.6419" style="stop-color:#D1B555"/>
		<stop  offset="0.6865" style="stop-color:#FAE878"/>
		<stop  offset="0.7724" style="stop-color:#FBF5AD"/>
		<stop  offset="0.8333" style="stop-color:#FAE878"/>
		<stop  offset="1" style="stop-color:#A46427"/>
	</linearGradient>
	<path class="st7" d="M543.9,759.78c-1.05-1.8-0.42-4.09,1.35-5.11l0,0c1.8-1.05,4.09-0.42,5.11,1.35l0,0
		c1.05,1.8,0.42,4.09-1.35,5.11l0,0c-0.6,0.35-1.25,0.52-1.87,0.52l0,0C545.85,761.65,544.6,760.98,543.9,759.78z"/>
	<linearGradient id="SVGID_9_" gradientUnits="userSpaceOnUse" x1="72.0339" y1="547.7314" x2="379.7296" y2="855.4272">
		<stop  offset="0" style="stop-color:#FBF395"/>
		<stop  offset="0.122" style="stop-color:#FAE77F"/>
		<stop  offset="0.2392" style="stop-color:#F8DC66"/>
		<stop  offset="0.2697" style="stop-color:#E1C256"/>
		<stop  offset="0.3364" style="stop-color:#BF993E"/>
		<stop  offset="0.3976" style="stop-color:#AA8031"/>
		<stop  offset="0.4509" style="stop-color:#9D722B"/>
		<stop  offset="0.4902" style="stop-color:#996D29"/>
		<stop  offset="0.5197" style="stop-color:#9C712B"/>
		<stop  offset="0.5567" style="stop-color:#A67D30"/>
		<stop  offset="0.5978" style="stop-color:#B7933D"/>
		<stop  offset="0.6419" style="stop-color:#D1B555"/>
		<stop  offset="0.6865" style="stop-color:#FAE878"/>
		<stop  offset="0.7724" style="stop-color:#FBF5AD"/>
		<stop  offset="0.8333" style="stop-color:#FAE878"/>
		<stop  offset="1" style="stop-color:#A46427"/>
	</linearGradient>
	<path class="st8" d="M239.55,720.53c-1.47-1.47-1.47-3.84,0-5.29l0,0c1.45-1.47,3.82-1.47,5.29,0l0,0c1.45,1.45,1.47,3.82,0,5.29
		l0,0c-0.72,0.72-1.7,1.1-2.65,1.1l0,0C241.22,721.63,240.27,721.26,239.55,720.53z"/>
	<linearGradient id="SVGID_10_" gradientUnits="userSpaceOnUse" x1="250.7448" y1="369.0379" x2="558.4321" y2="676.7252">
		<stop  offset="0" style="stop-color:#FBF395"/>
		<stop  offset="0.122" style="stop-color:#FAE77F"/>
		<stop  offset="0.2392" style="stop-color:#F8DC66"/>
		<stop  offset="0.2697" style="stop-color:#E1C256"/>
		<stop  offset="0.3364" style="stop-color:#BF993E"/>
		<stop  offset="0.3976" style="stop-color:#AA8031"/>
		<stop  offset="0.4509" style="stop-color:#9D722B"/>
		<stop  offset="0.4902" style="stop-color:#996D29"/>
		<stop  offset="0.5197" style="stop-color:#9C712B"/>
		<stop  offset="0.5567" style="stop-color:#A67D30"/>
		<stop  offset="0.5978" style="stop-color:#B7933D"/>
		<stop  offset="0.6419" style="stop-color:#D1B555"/>
		<stop  offset="0.6865" style="stop-color:#FAE878"/>
		<stop  offset="0.7724" style="stop-color:#FBF5AD"/>
		<stop  offset="0.8333" style="stop-color:#FAE878"/>
		<stop  offset="1" style="stop-color:#A46427"/>
	</linearGradient>
	<path class="st9" d="M596.78,720.36c-1.47-1.47-1.47-3.84,0-5.29l0,0c1.45-1.47,3.82-1.47,5.29,0l0,0c1.45,1.45,1.45,3.82,0,5.29
		l0,0c-0.72,0.72-1.7,1.1-2.65,1.1l0,0C598.45,721.46,597.5,721.08,596.78,720.36z"/>
	<linearGradient id="SVGID_11_" gradientUnits="userSpaceOnUse" x1="78.0517" y1="541.7162" x2="385.7457" y2="849.4102">
		<stop  offset="0" style="stop-color:#FBF395"/>
		<stop  offset="0.122" style="stop-color:#FAE77F"/>
		<stop  offset="0.2392" style="stop-color:#F8DC66"/>
		<stop  offset="0.2697" style="stop-color:#E1C256"/>
		<stop  offset="0.3364" style="stop-color:#BF993E"/>
		<stop  offset="0.3976" style="stop-color:#AA8031"/>
		<stop  offset="0.4509" style="stop-color:#9D722B"/>
		<stop  offset="0.4902" style="stop-color:#996D29"/>
		<stop  offset="0.5197" style="stop-color:#9C712B"/>
		<stop  offset="0.5567" style="stop-color:#A67D30"/>
		<stop  offset="0.5978" style="stop-color:#B7933D"/>
		<stop  offset="0.6419" style="stop-color:#D1B555"/>
		<stop  offset="0.6865" style="stop-color:#FAE878"/>
		<stop  offset="0.7724" style="stop-color:#FBF5AD"/>
		<stop  offset="0.8333" style="stop-color:#FAE878"/>
		<stop  offset="1" style="stop-color:#A46427"/>
	</linearGradient>
	<path class="st10" d="M198.73,667.51c-1.05-1.8-0.43-4.09,1.37-5.11l0,0c1.77-1.05,4.07-0.42,5.11,1.35l0,0
		c1.02,1.8,0.43,4.09-1.37,5.11l0,0c-0.6,0.35-1.22,0.52-1.87,0.52l0,0C200.67,669.38,199.42,668.71,198.73,667.51z"/>
	<linearGradient id="SVGID_12_" gradientUnits="userSpaceOnUse" x1="296.9757" y1="322.7859" x2="604.6727" y2="630.4828">
		<stop  offset="0" style="stop-color:#FBF395"/>
		<stop  offset="0.122" style="stop-color:#FAE77F"/>
		<stop  offset="0.2392" style="stop-color:#F8DC66"/>
		<stop  offset="0.2697" style="stop-color:#E1C256"/>
		<stop  offset="0.3364" style="stop-color:#BF993E"/>
		<stop  offset="0.3976" style="stop-color:#AA8031"/>
		<stop  offset="0.4509" style="stop-color:#9D722B"/>
		<stop  offset="0.4902" style="stop-color:#996D29"/>
		<stop  offset="0.5197" style="stop-color:#9C712B"/>
		<stop  offset="0.5567" style="stop-color:#A67D30"/>
		<stop  offset="0.5978" style="stop-color:#B7933D"/>
		<stop  offset="0.6419" style="stop-color:#D1B555"/>
		<stop  offset="0.6865" style="stop-color:#FAE878"/>
		<stop  offset="0.7724" style="stop-color:#FBF5AD"/>
		<stop  offset="0.8333" style="stop-color:#FAE878"/>
		<stop  offset="1" style="stop-color:#A46427"/>
	</linearGradient>
	<path class="st11" d="M637.72,668.64c-1.8-1.02-2.4-3.32-1.37-5.12l0,0c1.05-1.77,3.32-2.4,5.12-1.35l0,0
		c1.8,1.02,2.4,3.32,1.37,5.12l0,0c-0.7,1.2-1.95,1.87-3.24,1.87l0,0C638.94,669.13,638.3,668.98,637.72,668.64z"/>
	<linearGradient id="SVGID_13_" gradientUnits="userSpaceOnUse" x1="95.8458" y1="523.9215" x2="403.5399" y2="831.6157">
		<stop  offset="0" style="stop-color:#FBF395"/>
		<stop  offset="0.122" style="stop-color:#FAE77F"/>
		<stop  offset="0.2392" style="stop-color:#F8DC66"/>
		<stop  offset="0.2697" style="stop-color:#E1C256"/>
		<stop  offset="0.3364" style="stop-color:#BF993E"/>
		<stop  offset="0.3976" style="stop-color:#AA8031"/>
		<stop  offset="0.4509" style="stop-color:#9D722B"/>
		<stop  offset="0.4902" style="stop-color:#996D29"/>
		<stop  offset="0.5197" style="stop-color:#9C712B"/>
		<stop  offset="0.5567" style="stop-color:#A67D30"/>
		<stop  offset="0.5978" style="stop-color:#B7933D"/>
		<stop  offset="0.6419" style="stop-color:#D1B555"/>
		<stop  offset="0.6865" style="stop-color:#FAE878"/>
		<stop  offset="0.7724" style="stop-color:#FBF5AD"/>
		<stop  offset="0.8333" style="stop-color:#FAE878"/>
		<stop  offset="1" style="stop-color:#A46427"/>
	</linearGradient>
	<path class="st12" d="M173.05,605.71c-0.55-2,0.65-4.04,2.65-4.59l0,0c2-0.52,4.04,0.65,4.57,2.65l0,0c0.55,2-0.62,4.04-2.62,4.59
		l0,0c-0.32,0.07-0.67,0.12-0.97,0.12l0,0C175,608.48,173.5,607.38,173.05,605.71z"/>
	<linearGradient id="SVGID_14_" gradientUnits="userSpaceOnUse" x1="340.0674" y1="279.6916" x2="647.7657" y2="587.39">
		<stop  offset="0" style="stop-color:#FBF395"/>
		<stop  offset="0.122" style="stop-color:#FAE77F"/>
		<stop  offset="0.2392" style="stop-color:#F8DC66"/>
		<stop  offset="0.2697" style="stop-color:#E1C256"/>
		<stop  offset="0.3364" style="stop-color:#BF993E"/>
		<stop  offset="0.3976" style="stop-color:#AA8031"/>
		<stop  offset="0.4509" style="stop-color:#9D722B"/>
		<stop  offset="0.4902" style="stop-color:#996D29"/>
		<stop  offset="0.5197" style="stop-color:#9C712B"/>
		<stop  offset="0.5567" style="stop-color:#A67D30"/>
		<stop  offset="0.5978" style="stop-color:#B7933D"/>
		<stop  offset="0.6419" style="stop-color:#D1B555"/>
		<stop  offset="0.6865" style="stop-color:#FAE878"/>
		<stop  offset="0.7724" style="stop-color:#FBF5AD"/>
		<stop  offset="0.8333" style="stop-color:#FAE878"/>
		<stop  offset="1" style="stop-color:#A46427"/>
	</linearGradient>
	<path class="st13" d="M663.87,608.08c-2-0.52-3.17-2.57-2.65-4.57l0,0c0.52-2,2.6-3.19,4.59-2.67l0,0c2,0.55,3.17,2.59,2.64,4.59
		l0,0c-0.45,1.67-1.97,2.77-3.62,2.77l0,0C664.52,608.2,664.2,608.18,663.87,608.08z"/>
	<linearGradient id="SVGID_15_" gradientUnits="userSpaceOnUse" x1="124.2269" y1="495.5406" x2="431.919" y2="803.2327">
		<stop  offset="0" style="stop-color:#FBF395"/>
		<stop  offset="0.122" style="stop-color:#FAE77F"/>
		<stop  offset="0.2392" style="stop-color:#F8DC66"/>
		<stop  offset="0.2697" style="stop-color:#E1C256"/>
		<stop  offset="0.3364" style="stop-color:#BF993E"/>
		<stop  offset="0.3976" style="stop-color:#AA8031"/>
		<stop  offset="0.4509" style="stop-color:#9D722B"/>
		<stop  offset="0.4902" style="stop-color:#996D29"/>
		<stop  offset="0.5197" style="stop-color:#9C712B"/>
		<stop  offset="0.5567" style="stop-color:#A67D30"/>
		<stop  offset="0.5978" style="stop-color:#B7933D"/>
		<stop  offset="0.6419" style="stop-color:#D1B555"/>
		<stop  offset="0.6865" style="stop-color:#FAE878"/>
		<stop  offset="0.7724" style="stop-color:#FBF5AD"/>
		<stop  offset="0.8333" style="stop-color:#FAE878"/>
		<stop  offset="1" style="stop-color:#A46427"/>
	</linearGradient>
	<path class="st14" d="M164.32,539.36c-0.03-2.07,1.65-3.74,3.72-3.74l0,0c2.07,0,3.74,1.67,3.74,3.74l0,0
		c0,2.07-1.67,3.74-3.72,3.74l0,0C165.99,543.1,164.32,541.43,164.32,539.36z"/>
	<linearGradient id="SVGID_16_" gradientUnits="userSpaceOnUse" x1="377.1725" y1="242.607" x2="684.8605" y2="550.295">
		<stop  offset="0" style="stop-color:#FBF395"/>
		<stop  offset="0.122" style="stop-color:#FAE77F"/>
		<stop  offset="0.2392" style="stop-color:#F8DC66"/>
		<stop  offset="0.2697" style="stop-color:#E1C256"/>
		<stop  offset="0.3364" style="stop-color:#BF993E"/>
		<stop  offset="0.3976" style="stop-color:#AA8031"/>
		<stop  offset="0.4509" style="stop-color:#9D722B"/>
		<stop  offset="0.4902" style="stop-color:#996D29"/>
		<stop  offset="0.5197" style="stop-color:#9C712B"/>
		<stop  offset="0.5567" style="stop-color:#A67D30"/>
		<stop  offset="0.5978" style="stop-color:#B7933D"/>
		<stop  offset="0.6419" style="stop-color:#D1B555"/>
		<stop  offset="0.6865" style="stop-color:#FAE878"/>
		<stop  offset="0.7724" style="stop-color:#FBF5AD"/>
		<stop  offset="0.8333" style="stop-color:#FAE878"/>
		<stop  offset="1" style="stop-color:#A46427"/>
	</linearGradient>
	<path class="st15" d="M669.64,539.09c0-0.08,0-0.15,0.02-0.25l0,0c-0.02-0.1-0.02-0.18-0.02-0.28l0,0c0-2.07,1.67-3.77,3.74-3.77
		l0,0c2.07,0,3.74,1.67,3.74,3.74l0,0c0,0.1,0,0.17,0,0.27l0,0c0,0.1,0,0.18,0,0.28l0,0c0,2.07-1.67,3.74-3.74,3.74l0,0
		C671.31,542.83,669.64,541.16,669.64,539.09z"/>
	<linearGradient id="SVGID_17_" gradientUnits="userSpaceOnUse" x1="161.1549" y1="458.6118" x2="468.8487" y2="766.3056">
		<stop  offset="0" style="stop-color:#FBF395"/>
		<stop  offset="0.122" style="stop-color:#FAE77F"/>
		<stop  offset="0.2392" style="stop-color:#F8DC66"/>
		<stop  offset="0.2697" style="stop-color:#E1C256"/>
		<stop  offset="0.3364" style="stop-color:#BF993E"/>
		<stop  offset="0.3976" style="stop-color:#AA8031"/>
		<stop  offset="0.4509" style="stop-color:#9D722B"/>
		<stop  offset="0.4902" style="stop-color:#996D29"/>
		<stop  offset="0.5197" style="stop-color:#9C712B"/>
		<stop  offset="0.5567" style="stop-color:#A67D30"/>
		<stop  offset="0.5978" style="stop-color:#B7933D"/>
		<stop  offset="0.6419" style="stop-color:#D1B555"/>
		<stop  offset="0.6865" style="stop-color:#FAE878"/>
		<stop  offset="0.7724" style="stop-color:#FBF5AD"/>
		<stop  offset="0.8333" style="stop-color:#FAE878"/>
		<stop  offset="1" style="stop-color:#A46427"/>
	</linearGradient>
	<path class="st16" d="M175.55,477.58c-2-0.52-3.17-2.57-2.65-4.57l0,0c0.52-2.02,2.57-3.19,4.57-2.67l0,0
		c2,0.52,3.19,2.6,2.67,4.59l0,0c-0.45,1.67-1.97,2.77-3.62,2.77l0,0C176.19,477.71,175.87,477.68,175.55,477.58z"/>
	<linearGradient id="SVGID_18_" gradientUnits="userSpaceOnUse" x1="405.6507" y1="214.1239" x2="713.3406" y2="521.8139">
		<stop  offset="0" style="stop-color:#FBF395"/>
		<stop  offset="0.122" style="stop-color:#FAE77F"/>
		<stop  offset="0.2392" style="stop-color:#F8DC66"/>
		<stop  offset="0.2697" style="stop-color:#E1C256"/>
		<stop  offset="0.3364" style="stop-color:#BF993E"/>
		<stop  offset="0.3976" style="stop-color:#AA8031"/>
		<stop  offset="0.4509" style="stop-color:#9D722B"/>
		<stop  offset="0.4902" style="stop-color:#996D29"/>
		<stop  offset="0.5197" style="stop-color:#9C712B"/>
		<stop  offset="0.5567" style="stop-color:#A67D30"/>
		<stop  offset="0.5978" style="stop-color:#B7933D"/>
		<stop  offset="0.6419" style="stop-color:#D1B555"/>
		<stop  offset="0.6865" style="stop-color:#FAE878"/>
		<stop  offset="0.7724" style="stop-color:#FBF5AD"/>
		<stop  offset="0.8333" style="stop-color:#FAE878"/>
		<stop  offset="1" style="stop-color:#A46427"/>
	</linearGradient>
	<path class="st17" d="M661.08,474.14L661.08,474.14c-0.52-2,0.65-4.04,2.65-4.57l0,0c2-0.55,4.04,0.62,4.59,2.62l0,0l0,0l0,0
		c0.52,2-0.65,4.07-2.65,4.59l0,0c-0.32,0.1-0.65,0.12-0.97,0.12l0,0C663.05,476.91,661.53,475.81,661.08,474.14z"/>
	<linearGradient id="SVGID_19_" gradientUnits="userSpaceOnUse" x1="204.2293" y1="415.5372" x2="511.922" y2="723.2299">
		<stop  offset="0" style="stop-color:#FBF395"/>
		<stop  offset="0.122" style="stop-color:#FAE77F"/>
		<stop  offset="0.2392" style="stop-color:#F8DC66"/>
		<stop  offset="0.2697" style="stop-color:#E1C256"/>
		<stop  offset="0.3364" style="stop-color:#BF993E"/>
		<stop  offset="0.3976" style="stop-color:#AA8031"/>
		<stop  offset="0.4509" style="stop-color:#9D722B"/>
		<stop  offset="0.4902" style="stop-color:#996D29"/>
		<stop  offset="0.5197" style="stop-color:#9C712B"/>
		<stop  offset="0.5567" style="stop-color:#A67D30"/>
		<stop  offset="0.5978" style="stop-color:#B7933D"/>
		<stop  offset="0.6419" style="stop-color:#D1B555"/>
		<stop  offset="0.6865" style="stop-color:#FAE878"/>
		<stop  offset="0.7724" style="stop-color:#FBF5AD"/>
		<stop  offset="0.8333" style="stop-color:#FAE878"/>
		<stop  offset="1" style="stop-color:#A46427"/>
	</linearGradient>
	<path class="st18" d="M199.82,416.25c-1.77-1.02-2.4-3.32-1.37-5.12l0,0c1.05-1.8,3.34-2.4,5.12-1.37l0,0
		c1.8,1.02,2.4,3.32,1.37,5.11l0,0c-0.7,1.2-1.95,1.87-3.24,1.87l0,0C201.07,416.75,200.42,416.58,199.82,416.25z"/>
	<linearGradient id="SVGID_20_" gradientUnits="userSpaceOnUse" x1="423.3914" y1="196.3802" x2="731.0823" y2="504.0712">
		<stop  offset="0" style="stop-color:#FBF395"/>
		<stop  offset="0.122" style="stop-color:#FAE77F"/>
		<stop  offset="0.2392" style="stop-color:#F8DC66"/>
		<stop  offset="0.2697" style="stop-color:#E1C256"/>
		<stop  offset="0.3364" style="stop-color:#BF993E"/>
		<stop  offset="0.3976" style="stop-color:#AA8031"/>
		<stop  offset="0.4509" style="stop-color:#9D722B"/>
		<stop  offset="0.4902" style="stop-color:#996D29"/>
		<stop  offset="0.5197" style="stop-color:#9C712B"/>
		<stop  offset="0.5567" style="stop-color:#A67D30"/>
		<stop  offset="0.5978" style="stop-color:#B7933D"/>
		<stop  offset="0.6419" style="stop-color:#D1B555"/>
		<stop  offset="0.6865" style="stop-color:#FAE878"/>
		<stop  offset="0.7724" style="stop-color:#FBF5AD"/>
		<stop  offset="0.8333" style="stop-color:#FAE878"/>
		<stop  offset="1" style="stop-color:#A46427"/>
	</linearGradient>
	<path class="st19" d="M636.08,414.18c-1.02-1.77-0.42-4.07,1.37-5.12l0,0c1.77-1.02,4.07-0.42,5.12,1.37l0,0
		c1.02,1.77,0.42,4.07-1.37,5.11l0,0c-0.57,0.32-1.22,0.5-1.87,0.5l0,0C638.05,416.05,636.77,415.38,636.08,414.18z"/>
	<linearGradient id="SVGID_21_" gradientUnits="userSpaceOnUse" x1="250.4622" y1="369.3041" x2="558.1536" y2="676.9955">
		<stop  offset="0" style="stop-color:#FBF395"/>
		<stop  offset="0.122" style="stop-color:#FAE77F"/>
		<stop  offset="0.2392" style="stop-color:#F8DC66"/>
		<stop  offset="0.2697" style="stop-color:#E1C256"/>
		<stop  offset="0.3364" style="stop-color:#BF993E"/>
		<stop  offset="0.3976" style="stop-color:#AA8031"/>
		<stop  offset="0.4509" style="stop-color:#9D722B"/>
		<stop  offset="0.4902" style="stop-color:#996D29"/>
		<stop  offset="0.5197" style="stop-color:#9C712B"/>
		<stop  offset="0.5567" style="stop-color:#A67D30"/>
		<stop  offset="0.5978" style="stop-color:#B7933D"/>
		<stop  offset="0.6419" style="stop-color:#D1B555"/>
		<stop  offset="0.6865" style="stop-color:#FAE878"/>
		<stop  offset="0.7724" style="stop-color:#FBF5AD"/>
		<stop  offset="0.8333" style="stop-color:#FAE878"/>
		<stop  offset="1" style="stop-color:#A46427"/>
	</linearGradient>
	<path class="st20" d="M239.17,363.3c-1.45-1.45-1.47-3.82,0-5.29l0,0c1.45-1.47,3.82-1.47,5.29,0l0,0c1.47,1.45,1.47,3.82,0,5.29
		l0,0c-0.72,0.72-1.67,1.1-2.64,1.1l0,0C240.87,364.4,239.9,364.03,239.17,363.3z"/>
	<linearGradient id="SVGID_22_" gradientUnits="userSpaceOnUse" x1="429.3604" y1="190.4098" x2="737.0518" y2="498.1012">
		<stop  offset="0" style="stop-color:#FBF395"/>
		<stop  offset="0.122" style="stop-color:#FAE77F"/>
		<stop  offset="0.2392" style="stop-color:#F8DC66"/>
		<stop  offset="0.2697" style="stop-color:#E1C256"/>
		<stop  offset="0.3364" style="stop-color:#BF993E"/>
		<stop  offset="0.3976" style="stop-color:#AA8031"/>
		<stop  offset="0.4509" style="stop-color:#9D722B"/>
		<stop  offset="0.4902" style="stop-color:#996D29"/>
		<stop  offset="0.5197" style="stop-color:#9C712B"/>
		<stop  offset="0.5567" style="stop-color:#A67D30"/>
		<stop  offset="0.5978" style="stop-color:#B7933D"/>
		<stop  offset="0.6419" style="stop-color:#D1B555"/>
		<stop  offset="0.6865" style="stop-color:#FAE878"/>
		<stop  offset="0.7724" style="stop-color:#FBF5AD"/>
		<stop  offset="0.8333" style="stop-color:#FAE878"/>
		<stop  offset="1" style="stop-color:#A46427"/>
	</linearGradient>
	<path class="st21" d="M596.4,362.75c-1.45-1.47-1.47-3.84,0-5.29l0,0c1.45-1.47,3.82-1.47,5.29-0.03l0,0l0,0l0,0
		c1.47,1.47,1.47,3.84,0,5.29l0,0c-0.72,0.75-1.67,1.1-2.65,1.1l0,0C598.1,363.83,597.13,363.48,596.4,362.75z"/>
	<linearGradient id="SVGID_23_" gradientUnits="userSpaceOnUse" x1="296.7029" y1="323.0579" x2="604.3972" y2="630.7521">
		<stop  offset="0" style="stop-color:#FBF395"/>
		<stop  offset="0.122" style="stop-color:#FAE77F"/>
		<stop  offset="0.2392" style="stop-color:#F8DC66"/>
		<stop  offset="0.2697" style="stop-color:#E1C256"/>
		<stop  offset="0.3364" style="stop-color:#BF993E"/>
		<stop  offset="0.3976" style="stop-color:#AA8031"/>
		<stop  offset="0.4509" style="stop-color:#9D722B"/>
		<stop  offset="0.4902" style="stop-color:#996D29"/>
		<stop  offset="0.5197" style="stop-color:#9C712B"/>
		<stop  offset="0.5567" style="stop-color:#A67D30"/>
		<stop  offset="0.5978" style="stop-color:#B7933D"/>
		<stop  offset="0.6419" style="stop-color:#D1B555"/>
		<stop  offset="0.6865" style="stop-color:#FAE878"/>
		<stop  offset="0.7724" style="stop-color:#FBF5AD"/>
		<stop  offset="0.8333" style="stop-color:#FAE878"/>
		<stop  offset="1" style="stop-color:#A46427"/>
	</linearGradient>
	<path class="st22" d="M290.82,322.28c-1.05-1.77-0.42-4.07,1.35-5.12l0,0l0,0l0,0c1.8-1.02,4.09-0.42,5.12,1.37l0,0
		c1.05,1.77,0.42,4.07-1.35,5.11l0,0c-0.6,0.32-1.25,0.5-1.87,0.5l0,0C292.77,324.15,291.52,323.48,290.82,322.28z"/>
	<linearGradient id="SVGID_24_" gradientUnits="userSpaceOnUse" x1="423.2159" y1="196.5497" x2="730.9122" y2="504.2461">
		<stop  offset="0" style="stop-color:#FBF395"/>
		<stop  offset="0.122" style="stop-color:#FAE77F"/>
		<stop  offset="0.2392" style="stop-color:#F8DC66"/>
		<stop  offset="0.2697" style="stop-color:#E1C256"/>
		<stop  offset="0.3364" style="stop-color:#BF993E"/>
		<stop  offset="0.3976" style="stop-color:#AA8031"/>
		<stop  offset="0.4509" style="stop-color:#9D722B"/>
		<stop  offset="0.4902" style="stop-color:#996D29"/>
		<stop  offset="0.5197" style="stop-color:#9C712B"/>
		<stop  offset="0.5567" style="stop-color:#A67D30"/>
		<stop  offset="0.5978" style="stop-color:#B7933D"/>
		<stop  offset="0.6419" style="stop-color:#D1B555"/>
		<stop  offset="0.6865" style="stop-color:#FAE878"/>
		<stop  offset="0.7724" style="stop-color:#FBF5AD"/>
		<stop  offset="0.8333" style="stop-color:#FAE878"/>
		<stop  offset="1" style="stop-color:#A46427"/>
	</linearGradient>
	<path class="st23" d="M544.8,323.26c-1.8-1.05-2.4-3.32-1.37-5.12l0,0c1.02-1.8,3.32-2.42,5.11-1.37l0,0
		c1.8,1.02,2.42,3.32,1.37,5.11l0,0c-0.7,1.2-1.95,1.87-3.24,1.87l0,0C546.05,323.76,545.4,323.58,544.8,323.26z"/>
	<linearGradient id="SVGID_25_" gradientUnits="userSpaceOnUse" x1="339.8194" y1="279.9476" x2="647.511" y2="587.6392">
		<stop  offset="0" style="stop-color:#FBF395"/>
		<stop  offset="0.122" style="stop-color:#FAE77F"/>
		<stop  offset="0.2392" style="stop-color:#F8DC66"/>
		<stop  offset="0.2697" style="stop-color:#E1C256"/>
		<stop  offset="0.3364" style="stop-color:#BF993E"/>
		<stop  offset="0.3976" style="stop-color:#AA8031"/>
		<stop  offset="0.4509" style="stop-color:#9D722B"/>
		<stop  offset="0.4902" style="stop-color:#996D29"/>
		<stop  offset="0.5197" style="stop-color:#9C712B"/>
		<stop  offset="0.5567" style="stop-color:#A67D30"/>
		<stop  offset="0.5978" style="stop-color:#B7933D"/>
		<stop  offset="0.6419" style="stop-color:#D1B555"/>
		<stop  offset="0.6865" style="stop-color:#FAE878"/>
		<stop  offset="0.7724" style="stop-color:#FBF5AD"/>
		<stop  offset="0.8333" style="stop-color:#FAE878"/>
		<stop  offset="1" style="stop-color:#A46427"/>
	</linearGradient>
	<path class="st24" d="M351.33,296.03c-0.55-2,0.65-4.04,2.62-4.59l0,0c2-0.52,4.07,0.65,4.59,2.64l0,0c0.55,2-0.65,4.04-2.64,4.59
		l0,0c-0.32,0.1-0.65,0.12-0.97,0.12l0,0C353.28,298.8,351.78,297.71,351.33,296.03z"/>
	<linearGradient id="SVGID_26_" gradientUnits="userSpaceOnUse" x1="405.3087" y1="214.4572" x2="713.0055" y2="522.154">
		<stop  offset="0" style="stop-color:#FBF395"/>
		<stop  offset="0.122" style="stop-color:#FAE77F"/>
		<stop  offset="0.2392" style="stop-color:#F8DC66"/>
		<stop  offset="0.2697" style="stop-color:#E1C256"/>
		<stop  offset="0.3364" style="stop-color:#BF993E"/>
		<stop  offset="0.3976" style="stop-color:#AA8031"/>
		<stop  offset="0.4509" style="stop-color:#9D722B"/>
		<stop  offset="0.4902" style="stop-color:#996D29"/>
		<stop  offset="0.5197" style="stop-color:#9C712B"/>
		<stop  offset="0.5567" style="stop-color:#A67D30"/>
		<stop  offset="0.5978" style="stop-color:#B7933D"/>
		<stop  offset="0.6419" style="stop-color:#D1B555"/>
		<stop  offset="0.6865" style="stop-color:#FAE878"/>
		<stop  offset="0.7724" style="stop-color:#FBF5AD"/>
		<stop  offset="0.8333" style="stop-color:#FAE878"/>
		<stop  offset="1" style="stop-color:#A46427"/>
	</linearGradient>
	<path class="st25" d="M484.74,298.48c-2-0.55-3.19-2.6-2.67-4.59l0,0c0.55-2,2.6-3.19,4.59-2.65l0,0c2,0.52,3.19,2.57,2.65,4.57
		l0,0c-0.42,1.67-1.95,2.79-3.62,2.79l0,0C485.39,298.6,485.07,298.55,484.74,298.48z"/>
	<linearGradient id="SVGID_27_" gradientUnits="userSpaceOnUse" x1="376.8278" y1="242.938" x2="684.5251" y2="550.6353">
		<stop  offset="0" style="stop-color:#FBF395"/>
		<stop  offset="0.122" style="stop-color:#FAE77F"/>
		<stop  offset="0.2392" style="stop-color:#F8DC66"/>
		<stop  offset="0.2697" style="stop-color:#E1C256"/>
		<stop  offset="0.3364" style="stop-color:#BF993E"/>
		<stop  offset="0.3976" style="stop-color:#AA8031"/>
		<stop  offset="0.4509" style="stop-color:#9D722B"/>
		<stop  offset="0.4902" style="stop-color:#996D29"/>
		<stop  offset="0.5197" style="stop-color:#9C712B"/>
		<stop  offset="0.5567" style="stop-color:#A67D30"/>
		<stop  offset="0.5978" style="stop-color:#B7933D"/>
		<stop  offset="0.6419" style="stop-color:#D1B555"/>
		<stop  offset="0.6865" style="stop-color:#FAE878"/>
		<stop  offset="0.7724" style="stop-color:#FBF5AD"/>
		<stop  offset="0.8333" style="stop-color:#FAE878"/>
		<stop  offset="1" style="stop-color:#A46427"/>
	</linearGradient>
	<path class="st26" d="M416.58,286.43c-0.02-2.07,1.65-3.74,3.72-3.74l0,0c2.07-0.02,3.74,1.65,3.74,3.72l0,0
		c0.02,2.07-1.67,3.74-3.72,3.77l0,0C418.25,290.17,416.58,288.5,416.58,286.43z"/>
</g>
<linearGradient id="SVGID_28_" gradientUnits="userSpaceOnUse" x1="249.4977" y1="367.8705" x2="613.086" y2="731.4588">
	<stop  offset="0" style="stop-color:#FBF395"/>
	<stop  offset="0.122" style="stop-color:#FAE77F"/>
	<stop  offset="0.2392" style="stop-color:#F8DC66"/>
	<stop  offset="0.2697" style="stop-color:#E1C256"/>
	<stop  offset="0.3364" style="stop-color:#BF993E"/>
	<stop  offset="0.3976" style="stop-color:#AA8031"/>
	<stop  offset="0.4509" style="stop-color:#9D722B"/>
	<stop  offset="0.4902" style="stop-color:#996D29"/>
	<stop  offset="0.5197" style="stop-color:#9C712B"/>
	<stop  offset="0.5567" style="stop-color:#A67D30"/>
	<stop  offset="0.5978" style="stop-color:#B7933D"/>
	<stop  offset="0.6419" style="stop-color:#D1B555"/>
	<stop  offset="0.6865" style="stop-color:#FAE878"/>
	<stop  offset="0.7724" style="stop-color:#FBF5AD"/>
	<stop  offset="0.8333" style="stop-color:#FAE878"/>
	<stop  offset="1" style="stop-color:#A46427"/>
</linearGradient>
<circle class="st27" cx="420.71" cy="539.09" r="239.97"/>
<linearGradient id="SVGID_29_" gradientUnits="userSpaceOnUse" x1="370.0697" y1="254.4119" x2="712.3931" y2="596.7353">
	<stop  offset="0" style="stop-color:#FBF395"/>
	<stop  offset="0.122" style="stop-color:#FAE77F"/>
	<stop  offset="0.2392" style="stop-color:#F8DC66"/>
	<stop  offset="0.2697" style="stop-color:#E1C256"/>
	<stop  offset="0.3364" style="stop-color:#BF993E"/>
	<stop  offset="0.3976" style="stop-color:#AA8031"/>
	<stop  offset="0.4509" style="stop-color:#9D722B"/>
	<stop  offset="0.4902" style="stop-color:#996D29"/>
	<stop  offset="0.5197" style="stop-color:#9C712B"/>
	<stop  offset="0.5567" style="stop-color:#A67D30"/>
	<stop  offset="0.5978" style="stop-color:#B7933D"/>
	<stop  offset="0.6419" style="stop-color:#D1B555"/>
	<stop  offset="0.6865" style="stop-color:#FAE878"/>
	<stop  offset="0.7724" style="stop-color:#FBF5AD"/>
	<stop  offset="0.8333" style="stop-color:#FAE878"/>
	<stop  offset="1" style="stop-color:#A46427"/>
</linearGradient>
<polygon class="st28" points="423.07,329.74 439.42,301.42 406.71,301.42 "/>
</svg>
